ply
format ascii 1.0
element vertex 390
property float x
property float y
property float z
property float nx
property float ny
property float nz
element face 312
property list uchar int vertex_index
end_header
0.10047 0.00094 0.00280197 -0 0 1 
0.01248 0.00094 0.00280197 -0 0 1 
0.10047 0.00104 0.00148 0 1 0 
0.01248 0.00104 0.00148 0 1 0 
0.10047 0.00094 0.000158028 0 0 -1 
0.01248 0.00094 0.000158028 0 0 -1 
0.10047 0.00084 0.00148 0 -1 0 
0.01248 0.00084 0.00148 0 -1 0 
0.10047 0.00094 0.00280197 -0 0 1 
0.01248 0.00094 0.00280197 -0 0 1 
0.12897 0.00099 0.105772 -0 0 1 
0.12496 0.00099 0.105772 -0 0 1 
0.12897 0.00109 0.10552 0 1 0 
0.12496 0.00109 0.10552 0 1 0 
0.12897 0.00099 0.105268 0 0 -1 
0.12496 0.00099 0.105268 0 0 -1 
0.12897 0.00089 0.10552 0 -1 0 
0.12496 0.00089 0.10552 0 -1 0 
0.12897 0.00099 0.105772 -0 0 1 
0.12496 0.00099 0.105772 -0 0 1 
0.129159 0.00099 0.11297 -1 0 0 
0.129159 0.00099 0.10568 -1 0 0 
0.12944 0.00109 0.11297 0 1 0 
0.12944 0.00109 0.10568 0 1 0 
0.129721 0.00099 0.11297 1 0 -0 
0.129721 0.00099 0.10568 1 0 -0 
0.12944 0.00089 0.11297 0 -1 0 
0.12944 0.00089 0.10568 0 -1 0 
0.129159 0.00099 0.11297 -1 0 0 
0.129159 0.00099 0.10568 -1 0 0 
0.12199 0.00099 0.113159 -0 -0 -1 
0.12928 0.00099 0.113159 -0 -0 -1 
0.12199 0.00109 0.11344 0 1 0 
0.12928 0.00109 0.11344 0 1 0 
0.12199 0.00099 0.113721 0 -0 1 
0.12928 0.00099 0.113721 0 -0 1 
0.12199 0.00089 0.11344 0 -1 0 
0.12928 0.00089 0.11344 0 -1 0 
0.12199 0.00099 0.113159 -0 -0 -1 
0.12928 0.00099 0.113159 -0 -0 -1 
0.121804 0.00099 0.10605 1 0 0 
0.121804 0.00099 0.11328 1 0 0 
0.12152 0.00109 0.10605 0 1 0 
0.12152 0.00109 0.11328 0 1 0 
0.121236 0.00099 0.10605 -1 0 -0 
0.121236 0.00099 0.11328 -1 0 -0 
0.12152 0.00089 0.10605 0 -1 0 
0.12152 0.00089 0.11328 0 -1 0 
0.121804 0.00099 0.10605 1 0 0 
0.121804 0.00099 0.11328 1 0 0 
0.12938 0.00099 0.105397 -0 0 1 
0.12139 0.00099 0.105397 -0 0 1 
0.12938 0.00109 0.10511 0 1 0 
0.12139 0.00109 0.10511 0 1 0 
0.12938 0.00099 0.104823 0 0 -1 
0.12139 0.00099 0.104823 0 0 -1 
0.12938 0.00089 0.10511 0 -1 0 
0.12139 0.00089 0.10511 0 -1 0 
0.12938 0.00099 0.105397 -0 0 1 
0.12139 0.00099 0.105397 -0 0 1 
0.129574 0.00099 0.11338 -1 0 0 
0.129574 0.00099 0.10527 -1 0 0 
0.12985 0.00109 0.11338 0 1 0 
0.12985 0.00109 0.10527 0 1 0 
0.130126 0.00099 0.11338 1 0 -0 
0.130126 0.00099 0.10527 1 0 -0 
0.12985 0.00089 0.11338 0 -1 0 
0.12985 0.00089 0.10527 0 -1 0 
0.129574 0.00099 0.11338 -1 0 0 
0.129574 0.00099 0.10527 -1 0 0 
0.12158 0.00099 0.11357 -0 -0 -1 
0.12969 0.00099 0.11357 -0 -0 -1 
0.12158 0.00109 0.11385 0 1 0 
0.12969 0.00109 0.11385 0 1 0 
0.12158 0.00099 0.11413 0 -0 1 
0.12969 0.00099 0.11413 0 -0 1 
0.12158 0.00089 0.11385 0 -1 0 
0.12969 0.00089 0.11385 0 -1 0 
0.12158 0.00099 0.11357 -0 -0 -1 
0.12969 0.00099 0.11357 -0 -0 -1 
0.121389 0.00099 0.10564 1 0 0 
0.121389 0.00099 0.11369 1 0 0 
0.12111 0.00109 0.10564 0 1 0 
0.12111 0.00109 0.11369 0 1 0 
0.120831 0.00099 0.10564 -1 0 -0 
0.120831 0.00099 0.11369 -1 0 -0 
0.12111 0.00089 0.10564 0 -1 0 
0.12111 0.00089 0.11369 0 -1 0 
0.121389 0.00099 0.10564 1 0 0 
0.121389 0.00099 0.11369 1 0 0 
0.12979 0.00099 0.104996 -0 0 1 
0.12099 0.00099 0.104996 -0 0 1 
0.12979 0.00109 0.10471 0 1 0 
0.12099 0.00109 0.10471 0 1 0 
0.12979 0.00099 0.104424 0 0 -1 
0.12099 0.00099 0.104424 0 0 -1 
0.12979 0.00089 0.10471 0 -1 0 
0.12099 0.00089 0.10471 0 -1 0 
0.12979 0.00099 0.104996 -0 0 1 
0.12099 0.00099 0.104996 -0 0 1 
0.129984 0.00099 0.11379 -1 0 0 
0.129984 0.00099 0.10487 -1 0 0 
0.13026 0.00109 0.11379 0 1 0 
0.13026 0.00109 0.10487 0 1 0 
0.130536 0.00099 0.11379 1 0 -0 
0.130536 0.00099 0.10487 1 0 -0 
0.13026 0.00089 0.11379 0 -1 0 
0.13026 0.00089 0.10487 0 -1 0 
0.129984 0.00099 0.11379 -1 0 0 
0.129984 0.00099 0.10487 -1 0 0 
0.12118 0.00099 0.113981 -0 -0 -1 
0.1301 0.00099 0.113981 -0 -0 -1 
0.12118 0.00109 0.11426 0 1 0 
0.1301 0.00109 0.11426 0 1 0 
0.12118 0.00099 0.114539 0 -0 1 
0.1301 0.00099 0.114539 0 -0 1 
0.12118 0.00089 0.11426 0 -1 0 
0.1301 0.00089 0.11426 0 -1 0 
0.12118 0.00099 0.113981 -0 -0 -1 
0.1301 0.00099 0.113981 -0 -0 -1 
0.120988 0.00099 0.10524 1 0 0 
0.120988 0.00099 0.1141 1 0 0 
0.12071 0.00109 0.10524 0 1 0 
0.12071 0.00109 0.1141 0 1 0 
0.120432 0.00099 0.10524 -1 0 -0 
0.120432 0.00099 0.1141 -1 0 -0 
0.12071 0.00089 0.10524 0 -1 0 
0.12071 0.00089 0.1141 0 -1 0 
0.120988 0.00099 0.10524 1 0 0 
0.120988 0.00099 0.1141 1 0 0 
0.128458 0.00099 0.106942 -0.707107 0 0.707107 
0.127778 0.00099 0.106262 -0.707107 0 0.707107 
0.12882 0.00109 0.10658 0 1 0 
0.12814 0.00109 0.1059 0 1 0 
0.129182 0.00099 0.106218 0.707107 0 -0.707107 
0.128502 0.00099 0.105538 0.707107 0 -0.707107 
0.12882 0.00089 0.10658 0 -1 0 
0.12814 0.00089 0.1059 0 -1 0 
0.128458 0.00099 0.106942 -0.707107 0 0.707107 
0.127778 0.00099 0.106262 -0.707107 0 0.707107 
0.128727 0.00099 0.106373 0.707107 0 -0.707107 
0.129417 0.00099 0.107063 0.707107 0 -0.707107 
0.12837 0.00109 0.10673 0 1 0 
0.12906 0.00109 0.10742 0 1 0 
0.128013 0.00099 0.107087 -0.707107 0 0.707107 
0.128703 0.00099 0.107777 -0.707107 0 0.707107 
0.12837 0.00089 0.10673 0 -1 0 
0.12906 0.00089 0.10742 0 -1 0 
0.128727 0.00099 0.106373 0.707107 0 -0.707107 
0.129417 0.00099 0.107063 0.707107 0 -0.707107 
0.127955 0.00099 0.105978 0.713124 0 -0.701038 
0.128535 0.00099 0.106568 0.713124 0 -0.701038 
0.12779 0.00109 0.10614 0 1 0 
0.12837 0.00109 0.10673 0 1 0 
0.127625 0.00099 0.106302 -0.713124 0 0.701038 
0.128205 0.00099 0.106892 -0.713124 0 0.701038 
0.12779 0.00089 0.10614 0 -1 0 
0.12837 0.00089 0.10673 0 -1 0 
0.127955 0.00099 0.105978 0.713124 0 -0.701038 
0.128535 0.00099 0.106568 0.713124 0 -0.701038 
0.128583 0.00099 0.108027 -0.707107 0 0.707107 
0.126703 0.00099 0.106147 -0.707107 0 0.707107 
0.12883 0.00109 0.10778 0 1 0 
0.12695 0.00109 0.1059 0 1 0 
0.129077 0.00099 0.107533 0.707107 0 -0.707107 
0.127197 0.00099 0.105653 0.707107 0 -0.707107 
0.12883 0.00089 0.10778 0 -1 0 
0.12695 0.00089 0.1059 0 -1 0 
0.128583 0.00099 0.108027 -0.707107 0 0.707107 
0.126703 0.00099 0.106147 -0.707107 0 0.707107 
0.12683 0.00099 0.10591 0.707107 0 -0.707107 
0.12927 0.00099 0.10835 0.707107 0 -0.707107 
0.1266 0.00109 0.10614 0 1 0 
0.12904 0.00109 0.10858 0 1 0 
0.12637 0.00099 0.10637 -0.707107 0 0.707107 
0.12881 0.00099 0.10881 -0.707107 0 0.707107 
0.1266 0.00089 0.10614 0 -1 0 
0.12904 0.00089 0.10858 0 -1 0 
0.12683 0.00099 0.10591 0.707107 0 -0.707107 
0.12927 0.00099 0.10835 0.707107 0 -0.707107 
0.128597 0.00099 0.109183 -0.707107 0 0.707107 
0.125537 0.00099 0.106123 -0.707107 0 0.707107 
0.12882 0.00109 0.10896 0 1 0 
0.12576 0.00109 0.1059 0 1 0 
0.129043 0.00099 0.108737 0.707107 0 -0.707107 
0.125983 0.00099 0.105677 0.707107 0 -0.707107 
0.12882 0.00089 0.10896 0 -1 0 
0.12576 0.00089 0.1059 0 -1 0 
0.128597 0.00099 0.109183 -0.707107 0 0.707107 
0.125537 0.00099 0.106123 -0.707107 0 0.707107 
0.125628 0.00099 0.105922 0.707107 0 -0.707107 
0.129258 0.00099 0.109552 0.707107 0 -0.707107 
0.12541 0.00109 0.10614 0 1 0 
0.12904 0.00109 0.10977 0 1 0 
0.125192 0.00099 0.106358 -0.707107 0 0.707107 
0.128822 0.00099 0.109988 -0.707107 0 0.707107 
0.12541 0.00089 0.10614 0 -1 0 
0.12904 0.00089 0.10977 0 -1 0 
0.125628 0.00099 0.105922 0.707107 0 -0.707107 
0.129258 0.00099 0.109552 0.707107 0 -0.707107 
0.128606 0.00099 0.110354 -0.707107 0 0.707107 
0.124386 0.00099 0.106134 -0.707107 0 0.707107 
0.12882 0.00109 0.11014 0 1 0 
0.1246 0.00109 0.10592 0 1 0 
0.129034 0.00099 0.109926 0.707107 0 -0.707107 
0.124814 0.00099 0.105706 0.707107 0 -0.707107 
0.12882 0.00089 0.11014 0 -1 0 
0.1246 0.00089 0.10592 0 -1 0 
0.128606 0.00099 0.110354 -0.707107 0 0.707107 
0.124386 0.00099 0.106134 -0.707107 0 0.707107 
0.124429 0.00099 0.105931 0.707107 0 -0.707107 
0.129269 0.00099 0.110771 0.707107 0 -0.707107 
0.12422 0.00109 0.10614 0 1 0 
0.12906 0.00109 0.11098 0 1 0 
0.124011 0.00099 0.106349 -0.707107 0 0.707107 
0.128851 0.00099 0.111189 -0.707107 0 0.707107 
0.12422 0.00089 0.10614 0 -1 0 
0.12906 0.00089 0.11098 0 -1 0 
0.124429 0.00099 0.105931 0.707107 0 -0.707107 
0.129269 0.00099 0.110771 0.707107 0 -0.707107 
0.12861 0.00099 0.11154 -0.707107 0 0.707107 
0.1232 0.00099 0.10613 -0.707107 0 0.707107 
0.12882 0.00109 0.11133 0 1 0 
0.12341 0.00109 0.10592 0 1 0 
0.12903 0.00099 0.11112 0.707107 0 -0.707107 
0.12362 0.00099 0.10571 0.707107 0 -0.707107 
0.12882 0.00089 0.11133 0 -1 0 
0.12341 0.00089 0.10592 0 -1 0 
0.12861 0.00099 0.11154 -0.707107 0 0.707107 
0.1232 0.00099 0.10613 -0.707107 0 0.707107 
0.126185 0.00099 0.108845 0.707107 0 -0.707107 
0.129285 0.00099 0.111945 0.707107 0 -0.707107 
0.12596 0.00109 0.10907 0 1 0 
0.12906 0.00109 0.11217 0 1 0 
0.125735 0.00099 0.109295 -0.707107 0 0.707107 
0.128835 0.00099 0.112395 -0.707107 0 0.707107 
0.12596 0.00089 0.10907 0 -1 0 
0.12906 0.00089 0.11217 0 -1 0 
0.126185 0.00099 0.108845 0.707107 0 -0.707107 
0.129285 0.00099 0.111945 0.707107 0 -0.707107 
0.123223 0.00099 0.105958 0.708314 0 -0.705897 
0.126143 0.00099 0.108888 0.708314 0 -0.705897 
0.12304 0.00109 0.10614 0 1 0 
0.12596 0.00109 0.10907 0 1 0 
0.122857 0.00099 0.106322 -0.708314 0 0.705897 
0.125777 0.00099 0.109252 -0.708314 0 0.705897 
0.12304 0.00089 0.10614 0 -1 0 
0.12596 0.00089 0.10907 0 -1 0 
0.123223 0.00099 0.105958 0.708314 0 -0.705897 
0.126143 0.00099 0.108888 0.708314 0 -0.705897 
0.128616 0.00099 0.112724 -0.707107 0 0.707107 
0.121996 0.00099 0.106104 -0.707107 0 0.707107 
0.12882 0.00109 0.11252 0 1 0 
0.1222 0.00109 0.1059 0 1 0 
0.129024 0.00099 0.112316 0.707107 0 -0.707107 
0.122404 0.00099 0.105696 0.707107 0 -0.707107 
0.12882 0.00089 0.11252 0 -1 0 
0.1222 0.00089 0.1059 0 -1 0 
0.128616 0.00099 0.112724 -0.707107 0 0.707107 
0.121996 0.00099 0.106104 -0.707107 0 0.707107 
0.122349 0.00099 0.106231 0.707107 0 -0.707107 
0.129009 0.00099 0.112891 0.707107 0 -0.707107 
0.12214 0.00109 0.10644 0 1 0 
0.1288 0.00109 0.1131 0 1 0 
0.121931 0.00099 0.106649 -0.707107 0 0.707107 
0.128591 0.00099 0.113309 -0.707107 0 0.707107 
0.12214 0.00089 0.10644 0 -1 0 
0.1288 0.00089 0.1131 0 -1 0 
0.122349 0.00099 0.106231 0.707107 0 -0.707107 
0.129009 0.00099 0.112891 0.707107 0 -0.707107 
0.124779 0.00099 0.110121 -0.707107 0 0.707107 
0.121679 0.00099 0.107021 -0.707107 0 0.707107 
0.125 0.00109 0.1099 0 1 0 
0.1219 0.00109 0.1068 0 1 0 
0.125221 0.00099 0.109679 0.707107 0 -0.707107 
0.122121 0.00099 0.106579 0.707107 0 -0.707107 
0.125 0.00089 0.1099 0 -1 0 
0.1219 0.00089 0.1068 0 -1 0 
0.124779 0.00099 0.110121 -0.707107 0 0.707107 
0.121679 0.00099 0.107021 -0.707107 0 0.707107 
0.127748 0.00099 0.113003 -0.705897 0 0.708314 
0.124818 0.00099 0.110083 -0.705897 0 0.708314 
0.12793 0.00109 0.11282 0 1 0 
0.125 0.00109 0.1099 0 1 0 
0.128112 0.00099 0.112637 0.705897 0 -0.708314 
0.125182 0.00099 0.109717 0.705897 0 -0.708314 
0.12793 0.00089 0.11282 0 -1 0 
0.125 0.00089 0.1099 0 -1 0 
0.127748 0.00099 0.113003 -0.705897 0 0.708314 
0.124818 0.00099 0.110083 -0.705897 0 0.708314 
0.122346 0.00099 0.107424 0.707107 0 -0.707107 
0.127776 0.00099 0.112854 0.707107 0 -0.707107 
0.12214 0.00109 0.10763 0 1 0 
0.12757 0.00109 0.11306 0 1 0 
0.121934 0.00099 0.107836 -0.707107 0 0.707107 
0.127364 0.00099 0.113266 -0.707107 0 0.707107 
0.12214 0.00089 0.10763 0 -1 0 
0.12757 0.00089 0.11306 0 -1 0 
0.122346 0.00099 0.107424 0.707107 0 -0.707107 
0.127776 0.00099 0.112854 0.707107 0 -0.707107 
0.126529 0.00099 0.113031 -0.707107 0 0.707107 
0.121669 0.00099 0.108171 -0.707107 0 0.707107 
0.12674 0.00109 0.11282 0 1 0 
0.12188 0.00109 0.10796 0 1 0 
0.126951 0.00099 0.112609 0.707107 0 -0.707107 
0.122091 0.00099 0.107749 0.707107 0 -0.707107 
0.12674 0.00089 0.11282 0 -1 0 
0.12188 0.00089 0.10796 0 -1 0 
0.126529 0.00099 0.113031 -0.707107 0 0.707107 
0.121669 0.00099 0.108171 -0.707107 0 0.707107 
0.12235 0.00099 0.10861 0.707107 0 -0.707107 
0.12659 0.00099 0.11285 0.707107 0 -0.707107 
0.12214 0.00109 0.10882 0 1 0 
0.12638 0.00109 0.11306 0 1 0 
0.12193 0.00099 0.10903 -0.707107 0 0.707107 
0.12617 0.00099 0.11327 -0.707107 0 0.707107 
0.12214 0.00089 0.10882 0 -1 0 
0.12638 0.00089 0.11306 0 -1 0 
0.12235 0.00099 0.10861 0.707107 0 -0.707107 
0.12659 0.00099 0.11285 0.707107 0 -0.707107 
0.125327 0.00099 0.113023 -0.707107 0 0.707107 
0.121667 0.00099 0.109363 -0.707107 0 0.707107 
0.12554 0.00109 0.11281 0 1 0 
0.12188 0.00109 0.10915 0 1 0 
0.125753 0.00099 0.112597 0.707107 0 -0.707107 
0.122093 0.00099 0.108937 0.707107 0 -0.707107 
0.12554 0.00089 0.11281 0 -1 0 
0.12188 0.00089 0.10915 0 -1 0 
0.125327 0.00099 0.113023 -0.707107 0 0.707107 
0.121667 0.00099 0.109363 -0.707107 0 0.707107 
0.122362 0.00099 0.109778 0.707107 0 -0.707107 
0.125442 0.00099 0.112858 0.707107 0 -0.707107 
0.12214 0.00109 0.11 0 1 0 
0.12522 0.00109 0.11308 0 1 0 
0.121918 0.00099 0.110222 -0.707107 0 0.707107 
0.124998 0.00099 0.113302 -0.707107 0 0.707107 
0.12214 0.00089 0.11 0 -1 0 
0.12522 0.00089 0.11308 0 -1 0 
0.122362 0.00099 0.109778 0.707107 0 -0.707107 
0.125442 0.00099 0.112858 0.707107 0 -0.707107 
0.124138 0.00099 0.113042 -0.707107 0 0.707107 
0.121678 0.00099 0.110582 -0.707107 0 0.707107 
0.12436 0.00109 0.11282 0 1 0 
0.1219 0.00109 0.11036 0 1 0 
0.124582 0.00099 0.112598 0.707107 0 -0.707107 
0.122122 0.00099 0.110138 0.707107 0 -0.707107 
0.12436 0.00089 0.11282 0 -1 0 
0.1219 0.00089 0.11036 0 -1 0 
0.124138 0.00099 0.113042 -0.707107 0 0.707107 
0.121678 0.00099 0.110582 -0.707107 0 0.707107 
0.122379 0.00099 0.110951 0.707107 0 -0.707107 
0.124269 0.00099 0.112841 0.707107 0 -0.707107 
0.12214 0.00109 0.11119 0 1 0 
0.12403 0.00109 0.11308 0 1 0 
0.121901 0.00099 0.111429 -0.707107 0 0.707107 
0.123791 0.00099 0.113319 -0.707107 0 0.707107 
0.12214 0.00089 0.11119 0 -1 0 
0.12403 0.00089 0.11308 0 -1 0 
0.122379 0.00099 0.110951 0.707107 0 -0.707107 
0.124269 0.00099 0.112841 0.707107 0 -0.707107 
0.122253 0.00099 0.112577 -0.707107 0 0.707107 
0.121563 0.00099 0.111887 -0.707107 0 0.707107 
0.12259 0.00109 0.11224 0 1 0 
0.1219 0.00109 0.11155 0 1 0 
0.122927 0.00099 0.111903 0.707107 0 -0.707107 
0.122237 0.00099 0.111213 0.707107 0 -0.707107 
0.12259 0.00089 0.11224 0 -1 0 
0.1219 0.00089 0.11155 0 -1 0 
0.122253 0.00099 0.112577 -0.707107 0 0.707107 
0.121563 0.00099 0.111887 -0.707107 0 0.707107 
0.123018 0.00099 0.112985 -0.701038 0 0.713124 
0.122428 0.00099 0.112405 -0.701038 0 0.713124 
0.12318 0.00109 0.11282 0 1 0 
0.12259 0.00109 0.11224 0 1 0 
0.123342 0.00099 0.112655 0.701038 0 -0.713124 
0.122752 0.00099 0.112075 0.701038 0 -0.713124 
0.12318 0.00089 0.11282 0 -1 0 
0.12259 0.00089 0.11224 0 -1 0 
0.123018 0.00099 0.112985 -0.701038 0 0.713124 
0.122428 0.00099 0.112405 -0.701038 0 0.713124 
0.122462 0.00099 0.112058 0.707107 0 -0.707107 
0.123142 0.00099 0.112738 0.707107 0 -0.707107 
0.12214 0.00109 0.11238 0 1 0 
0.12282 0.00109 0.11306 0 1 0 
0.121818 0.00099 0.112702 -0.707107 0 0.707107 
0.122498 0.00099 0.113382 -0.707107 0 0.707107 
0.12214 0.00089 0.11238 0 -1 0 
0.12282 0.00089 0.11306 0 -1 0 
0.122462 0.00099 0.112058 0.707107 0 -0.707107 
0.123142 0.00099 0.112738 0.707107 0 -0.707107 
3 0 1 2
3 2 1 3
3 2 3 4
3 4 3 5
3 4 5 6
3 6 5 7
3 6 7 8
3 8 7 9
3 10 11 12
3 12 11 13
3 12 13 14
3 14 13 15
3 14 15 16
3 16 15 17
3 16 17 18
3 18 17 19
3 20 21 22
3 22 21 23
3 22 23 24
3 24 23 25
3 24 25 26
3 26 25 27
3 26 27 28
3 28 27 29
3 30 31 32
3 32 31 33
3 32 33 34
3 34 33 35
3 34 35 36
3 36 35 37
3 36 37 38
3 38 37 39
3 40 41 42
3 42 41 43
3 42 43 44
3 44 43 45
3 44 45 46
3 46 45 47
3 46 47 48
3 48 47 49
3 50 51 52
3 52 51 53
3 52 53 54
3 54 53 55
3 54 55 56
3 56 55 57
3 56 57 58
3 58 57 59
3 60 61 62
3 62 61 63
3 62 63 64
3 64 63 65
3 64 65 66
3 66 65 67
3 66 67 68
3 68 67 69
3 70 71 72
3 72 71 73
3 72 73 74
3 74 73 75
3 74 75 76
3 76 75 77
3 76 77 78
3 78 77 79
3 80 81 82
3 82 81 83
3 82 83 84
3 84 83 85
3 84 85 86
3 86 85 87
3 86 87 88
3 88 87 89
3 90 91 92
3 92 91 93
3 92 93 94
3 94 93 95
3 94 95 96
3 96 95 97
3 96 97 98
3 98 97 99
3 100 101 102
3 102 101 103
3 102 103 104
3 104 103 105
3 104 105 106
3 106 105 107
3 106 107 108
3 108 107 109
3 110 111 112
3 112 111 113
3 112 113 114
3 114 113 115
3 114 115 116
3 116 115 117
3 116 117 118
3 118 117 119
3 120 121 122
3 122 121 123
3 122 123 124
3 124 123 125
3 124 125 126
3 126 125 127
3 126 127 128
3 128 127 129
3 130 131 132
3 132 131 133
3 132 133 134
3 134 133 135
3 134 135 136
3 136 135 137
3 136 137 138
3 138 137 139
3 140 141 142
3 142 141 143
3 142 143 144
3 144 143 145
3 144 145 146
3 146 145 147
3 146 147 148
3 148 147 149
3 150 151 152
3 152 151 153
3 152 153 154
3 154 153 155
3 154 155 156
3 156 155 157
3 156 157 158
3 158 157 159
3 160 161 162
3 162 161 163
3 162 163 164
3 164 163 165
3 164 165 166
3 166 165 167
3 166 167 168
3 168 167 169
3 170 171 172
3 172 171 173
3 172 173 174
3 174 173 175
3 174 175 176
3 176 175 177
3 176 177 178
3 178 177 179
3 180 181 182
3 182 181 183
3 182 183 184
3 184 183 185
3 184 185 186
3 186 185 187
3 186 187 188
3 188 187 189
3 190 191 192
3 192 191 193
3 192 193 194
3 194 193 195
3 194 195 196
3 196 195 197
3 196 197 198
3 198 197 199
3 200 201 202
3 202 201 203
3 202 203 204
3 204 203 205
3 204 205 206
3 206 205 207
3 206 207 208
3 208 207 209
3 210 211 212
3 212 211 213
3 212 213 214
3 214 213 215
3 214 215 216
3 216 215 217
3 216 217 218
3 218 217 219
3 220 221 222
3 222 221 223
3 222 223 224
3 224 223 225
3 224 225 226
3 226 225 227
3 226 227 228
3 228 227 229
3 230 231 232
3 232 231 233
3 232 233 234
3 234 233 235
3 234 235 236
3 236 235 237
3 236 237 238
3 238 237 239
3 240 241 242
3 242 241 243
3 242 243 244
3 244 243 245
3 244 245 246
3 246 245 247
3 246 247 248
3 248 247 249
3 250 251 252
3 252 251 253
3 252 253 254
3 254 253 255
3 254 255 256
3 256 255 257
3 256 257 258
3 258 257 259
3 260 261 262
3 262 261 263
3 262 263 264
3 264 263 265
3 264 265 266
3 266 265 267
3 266 267 268
3 268 267 269
3 270 271 272
3 272 271 273
3 272 273 274
3 274 273 275
3 274 275 276
3 276 275 277
3 276 277 278
3 278 277 279
3 280 281 282
3 282 281 283
3 282 283 284
3 284 283 285
3 284 285 286
3 286 285 287
3 286 287 288
3 288 287 289
3 290 291 292
3 292 291 293
3 292 293 294
3 294 293 295
3 294 295 296
3 296 295 297
3 296 297 298
3 298 297 299
3 300 301 302
3 302 301 303
3 302 303 304
3 304 303 305
3 304 305 306
3 306 305 307
3 306 307 308
3 308 307 309
3 310 311 312
3 312 311 313
3 312 313 314
3 314 313 315
3 314 315 316
3 316 315 317
3 316 317 318
3 318 317 319
3 320 321 322
3 322 321 323
3 322 323 324
3 324 323 325
3 324 325 326
3 326 325 327
3 326 327 328
3 328 327 329
3 330 331 332
3 332 331 333
3 332 333 334
3 334 333 335
3 334 335 336
3 336 335 337
3 336 337 338
3 338 337 339
3 340 341 342
3 342 341 343
3 342 343 344
3 344 343 345
3 344 345 346
3 346 345 347
3 346 347 348
3 348 347 349
3 350 351 352
3 352 351 353
3 352 353 354
3 354 353 355
3 354 355 356
3 356 355 357
3 356 357 358
3 358 357 359
3 360 361 362
3 362 361 363
3 362 363 364
3 364 363 365
3 364 365 366
3 366 365 367
3 366 367 368
3 368 367 369
3 370 371 372
3 372 371 373
3 372 373 374
3 374 373 375
3 374 375 376
3 376 375 377
3 376 377 378
3 378 377 379
3 380 381 382
3 382 381 383
3 382 383 384
3 384 383 385
3 384 385 386
3 386 385 387
3 386 387 388
3 388 387 389
